<?xml version="1.0" encoding="UTF-8" standalone="no"?>
<!-- Created with Inkscape (http://www.inkscape.org/) -->

<svg
   xmlns:dc="http://purl.org/dc/elements/1.1/"
   xmlns:cc="http://creativecommons.org/ns#"
   xmlns:rdf="http://www.w3.org/1999/02/22-rdf-syntax-ns#"
   xmlns:svg="http://www.w3.org/2000/svg"
   xmlns="http://www.w3.org/2000/svg"
   xmlns:sodipodi="http://sodipodi.sourceforge.net/DTD/sodipodi-0.dtd"
   xmlns:inkscape="http://www.inkscape.org/namespaces/inkscape"
   width="800"
   height="1280"
   viewBox="0 0 211.66666 338.66668"
   version="1.1"
   id="svg1037"
   inkscape:version="0.92.2 (30a58d1, 2017-08-07)"
   sodipodi:docname="7.svg">
  <defs
     id="defs1031" />
  <sodipodi:namedview
     id="base"
     pagecolor="#ffffff"
     bordercolor="#666666"
     borderopacity="1.0"
     inkscape:pageopacity="0.0"
     inkscape:pageshadow="2"
     inkscape:zoom="0.49497475"
     inkscape:cx="144.22255"
     inkscape:cy="731.90447"
     inkscape:document-units="mm"
     inkscape:current-layer="layer8"
     showgrid="false"
     units="px"
     inkscape:window-width="1301"
     inkscape:window-height="744"
     inkscape:window-x="65"
     inkscape:window-y="24"
     inkscape:window-maximized="1" />
  <metadata
     id="metadata1034">
    <rdf:RDF>
      <cc:Work
         rdf:about="">
        <dc:format>image/svg+xml</dc:format>
        <dc:type
           rdf:resource="http://purl.org/dc/dcmitype/StillImage" />
        <dc:title />
      </cc:Work>
    </rdf:RDF>
  </metadata>
  <g
     inkscape:groupmode="layer"
     id="layer8"
     inkscape:label="Layer 2">
    <ellipse
       style="fill:#ffffff;fill-opacity:1;stroke:#000000;stroke-width:2.11666656;stroke-miterlimit:4;stroke-dasharray:none;stroke-opacity:1"
       id="path1813"
       cx="106.96726"
       cy="77.957588"
       rx="35.71875"
       ry="35.624252" />
    <path
       style="fill:none;fill-opacity:1;stroke:#000000;stroke-width:2.11666656;stroke-miterlimit:4;stroke-dasharray:none;stroke-opacity:1"
       d="m 106.58928,113.77083 v 85.04464 L 91.848214,303.1369"
       id="path1815"
       inkscape:connector-curvature="0" />
    <path
       style="fill:none;fill-opacity:1;stroke:#000000;stroke-width:2.11666656;stroke-miterlimit:4;stroke-dasharray:none;stroke-opacity:1"
       d="m 106.37327,126.45466 -11.358954,41.42678 11.358954,26.19241"
       id="path1817"
       inkscape:connector-curvature="0" />
    <path
       style="fill:none;fill-opacity:1;stroke:#000000;stroke-width:2.11666656;stroke-miterlimit:4;stroke-dasharray:none;stroke-opacity:1"
       d="m 106.50691,123.24743 -3.0736,37.41773 39.42225,18.04069"
       id="path1819"
       inkscape:connector-curvature="0" />
    <path
       style="fill:none;fill-opacity:1;stroke:#000000;stroke-width:2.11666656;stroke-miterlimit:4;stroke-dasharray:none;stroke-opacity:1"
       d="m 108.64506,196.88018 16.70435,41.15951 -20.31249,46.10399"
       id="path1821"
       inkscape:connector-curvature="0" />
    <g
       id="g2614"
       transform="translate(-2.1491679,-5.1632648)">
      <path
         inkscape:connector-curvature="0"
         id="path2608"
         d="m 84.477676,57.074353 -0.94494,-3.590774 -1.511906,-3.023809 -0.566963,-0.944941 -3.212798,-2.078868 -2.645833,-0.377976 -2.834823,1.133927 -4.535712,3.212799 -3.023809,3.77976 -3.212799,5.10268 -2.456846,7.181546 -0.566963,4.724702 0.377976,6.236607 1.322917,7.370535 2.456844,9.07143 1.511906,6.992559 1.889881,10.77232 0.188987,6.80357 v 6.99256 l -0.755952,10.01637 10.394344,-10.39434 10.394344,-15.30804 0.377979,-0.18899 -4.15774,-3.77976 -3.77976,-5.48066 -2.645834,-5.291662 -1.700892,-6.047618 -0.566965,-4.157739 -0.188989,-4.535712 0.188989,-3.02381 2.645833,1.322917 3.590774,0.566963 8.882439,-0.377976 9.260416,-1.700893 11.150299,-2.078868 7.9375,-2.078868 8.12649,-2.078871 5.10268,-1.889879 2.26785,-1.889882 1.13393,1.322917 4.34673,6.80357 4.34672,5.480655 1.88988,0.944941 1.32292,-0.566965 -0.75595,-5.669642 -0.94494,-3.779761 -2.26786,-5.669645 -3.77976,-5.291664 -2.83482,-3.96875 -3.2128,-3.023812 -5.85863,-3.401785 -6.23661,-3.023809 -6.61458,-1.133927 -6.04762,-0.188989 -6.04762,1.13393 -6.047618,1.889879 -5.291667,2.645833 z"
         style="fill:#ffffff;fill-opacity:1;stroke:#000000;stroke-width:1;stroke-miterlimit:4;stroke-dasharray:none;stroke-opacity:1" />
      <path
         inkscape:connector-curvature="0"
         id="path2610"
         d="m 84.477674,57.074353 c 0,0 -10.77232,9.449403 -10.205355,21.166664"
         style="fill:#ffffff;fill-opacity:1;stroke:#000000;stroke-width:1;stroke-miterlimit:4;stroke-dasharray:none;stroke-opacity:1" />
    </g>
  </g>
</svg>
