<?xml version="1.0" encoding="UTF-8" standalone="no"?>
<!-- Created with Inkscape (http://www.inkscape.org/) -->

<svg
   xmlns:dc="http://purl.org/dc/elements/1.1/"
   xmlns:cc="http://creativecommons.org/ns#"
   xmlns:rdf="http://www.w3.org/1999/02/22-rdf-syntax-ns#"
   xmlns:svg="http://www.w3.org/2000/svg"
   xmlns="http://www.w3.org/2000/svg"
   xmlns:sodipodi="http://sodipodi.sourceforge.net/DTD/sodipodi-0.dtd"
   xmlns:inkscape="http://www.inkscape.org/namespaces/inkscape"
   width="800"
   height="1280"
   viewBox="0 0 211.66667 338.66666"
   version="1.1"
   id="svg1045"
   inkscape:version="0.92.2 (30a58d1, 2017-08-07)"
   sodipodi:docname="cry.rev.svg">
  <defs
     id="defs1039" />
  <sodipodi:namedview
     id="base"
     pagecolor="#ffffff"
     bordercolor="#666666"
     borderopacity="1.0"
     inkscape:pageopacity="0.0"
     inkscape:pageshadow="2"
     inkscape:zoom="0.7"
     inkscape:cx="253.74677"
     inkscape:cy="675.51305"
     inkscape:document-units="mm"
     inkscape:current-layer="layer9"
     showgrid="false"
     units="px"
     inkscape:window-width="1301"
     inkscape:window-height="744"
     inkscape:window-x="65"
     inkscape:window-y="24"
     inkscape:window-maximized="1" />
  <metadata
     id="metadata1042">
    <rdf:RDF>
      <cc:Work
         rdf:about="">
        <dc:format>image/svg+xml</dc:format>
        <dc:type
           rdf:resource="http://purl.org/dc/dcmitype/StillImage" />
        <dc:title />
      </cc:Work>
    </rdf:RDF>
  </metadata>
  <g
     inkscape:groupmode="layer"
     id="layer9"
     inkscape:label="Layer 3">
    <path
       style="fill:#ffffff;fill-opacity:1;stroke:#000000;stroke-width:2.11666656;stroke-miterlimit:4;stroke-dasharray:none;stroke-opacity:1"
       id="path2092"
       sodipodi:type="arc"
       sodipodi:cx="-78.814011"
       sodipodi:cy="136.20999"
       sodipodi:rx="35.546848"
       sodipodi:ry="35.94775"
       sodipodi:start="0"
       sodipodi:end="6.2831578"
       sodipodi:open="true"
       d="m -43.267162,136.20999 a 35.546848,35.94775 0 0 1 -35.546604,35.94775 35.546848,35.94775 0 0 1 -35.547094,-35.94725 35.546848,35.94775 0 0 1 35.546116,-35.94825 35.546848,35.94775 0 0 1 35.547582,35.94676"
       transform="scale(-1,1)" />
    <path
       style="fill:none;fill-opacity:1;stroke:#000000;stroke-width:2.11666656;stroke-miterlimit:4;stroke-dasharray:none;stroke-opacity:1"
       d="m 108.48092,269.71111 c 39.28862,-47.30669 2.40542,-115.99496 2.40542,-115.99496 l -9.08716,70.29189 -17.907061,-52.6521"
       id="path2096"
       inkscape:connector-curvature="0" />
    <path
       style="fill:none;fill-opacity:1;stroke:#000000;stroke-width:2.11666656;stroke-miterlimit:4;stroke-dasharray:none;stroke-opacity:1"
       d="m 110.88635,153.71615 -40.090431,55.59206 -15.7689,-44.09947"
       id="path2100"
       inkscape:connector-curvature="0" />
    <path
       style="fill:none;fill-opacity:1;stroke:#000000;stroke-width:2.11666656;stroke-miterlimit:4;stroke-dasharray:none;stroke-opacity:1"
       d="m 124.24982,286.54912 -59.601101,-29.66693 43.832201,12.82892 53.4539,-3.74175 -96.751561,27.26149"
       id="path2102"
       inkscape:connector-curvature="0" />
    <g
       id="g2614"
       transform="matrix(-0.66696305,0.74509079,0.74509079,0.66696305,91.309836,-0.53536673)">
      <path
         inkscape:connector-curvature="0"
         id="path2608"
         d="m 84.477676,57.074353 -0.94494,-3.590774 -1.511906,-3.023809 -0.566963,-0.944941 -3.212798,-2.078868 -2.645833,-0.377976 -2.834823,1.133927 -4.535712,3.212799 -3.023809,3.77976 -3.212799,5.10268 -2.456846,7.181546 -0.566963,4.724702 0.377976,6.236607 1.322917,7.370535 2.456844,9.07143 1.511906,6.992559 1.889881,10.77232 0.188987,6.80357 v 6.99256 l -0.755952,10.01637 10.394344,-10.39434 10.394344,-15.30804 0.377979,-0.18899 -4.15774,-3.77976 -3.77976,-5.48066 -2.645834,-5.291662 -1.700892,-6.047618 -0.566965,-4.157739 -0.188989,-4.535712 0.188989,-3.02381 2.645833,1.322917 3.590774,0.566963 8.882439,-0.377976 9.260416,-1.700893 11.150299,-2.078868 7.9375,-2.078868 8.12649,-2.078871 5.10268,-1.889879 2.26785,-1.889882 1.13393,1.322917 4.34673,6.80357 4.34672,5.480655 1.88988,0.944941 1.32292,-0.566965 -0.75595,-5.669642 -0.94494,-3.779761 -2.26786,-5.669645 -3.77976,-5.291664 -2.83482,-3.96875 -3.2128,-3.023812 -5.85863,-3.401785 -6.23661,-3.023809 -6.61458,-1.133927 -6.04762,-0.188989 -6.04762,1.13393 -6.047618,1.889879 -5.291667,2.645833 z"
         style="fill:#ffffff;fill-opacity:1;stroke:#000000;stroke-width:1;stroke-miterlimit:4;stroke-dasharray:none;stroke-opacity:1" />
      <path
         inkscape:connector-curvature="0"
         id="path2610"
         d="m 84.477674,57.074353 c 0,0 -10.77232,9.449403 -10.205355,21.166664"
         style="fill:#ffffff;fill-opacity:1;stroke:#000000;stroke-width:1;stroke-miterlimit:4;stroke-dasharray:none;stroke-opacity:1" />
    </g>
  </g>
</svg>
