<?xml version="1.0" encoding="UTF-8" standalone="no"?>
<!-- Created with Inkscape (http://www.inkscape.org/) -->

<svg
   xmlns:dc="http://purl.org/dc/elements/1.1/"
   xmlns:cc="http://creativecommons.org/ns#"
   xmlns:rdf="http://www.w3.org/1999/02/22-rdf-syntax-ns#"
   xmlns:svg="http://www.w3.org/2000/svg"
   xmlns="http://www.w3.org/2000/svg"
   xmlns:sodipodi="http://sodipodi.sourceforge.net/DTD/sodipodi-0.dtd"
   xmlns:inkscape="http://www.inkscape.org/namespaces/inkscape"
   width="800"
   height="1280"
   viewBox="0 0 211.66667 338.66666"
   version="1.1"
   id="svg1045"
   inkscape:version="0.92.2 (30a58d1, 2017-08-07)"
   sodipodi:docname="cry.rev.svg">
  <defs
     id="defs1039" />
  <sodipodi:namedview
     id="base"
     pagecolor="#ffffff"
     bordercolor="#666666"
     borderopacity="1.0"
     inkscape:pageopacity="0.0"
     inkscape:pageshadow="2"
     inkscape:zoom="0.35"
     inkscape:cx="-340.51262"
     inkscape:cy="651.01789"
     inkscape:document-units="mm"
     inkscape:current-layer="layer9"
     showgrid="false"
     units="px"
     inkscape:window-width="1301"
     inkscape:window-height="744"
     inkscape:window-x="65"
     inkscape:window-y="24"
     inkscape:window-maximized="1" />
  <metadata
     id="metadata1042">
    <rdf:RDF>
      <cc:Work
         rdf:about="">
        <dc:format>image/svg+xml</dc:format>
        <dc:type
           rdf:resource="http://purl.org/dc/dcmitype/StillImage" />
        <dc:title />
      </cc:Work>
    </rdf:RDF>
  </metadata>
  <g
     inkscape:groupmode="layer"
     id="layer9"
     inkscape:label="Layer 3">
    <g
       id="g1172"
       transform="matrix(-1.2275524,0.51933479,0.5191088,1.2270183,137.75685,-22.696164)">
      <path
         inkscape:connector-curvature="0"
         id="path1158"
         d="m 107.76307,200.86401 c 0,0 -3.18051,15.90254 -27.502032,24.50862 0,0 -26.005324,3.18051 -30.869629,-13.47038 0,0 51.262291,-12.90912 56.313691,-18.33469 z"
         style="fill:none;stroke:#000000;stroke-width:0.79500002;stroke-linecap:butt;stroke-linejoin:miter;stroke-miterlimit:4;stroke-dasharray:none;stroke-opacity:1" />
      <path
         inkscape:connector-curvature="0"
         id="path1160"
         d="m 106.16406,196.18334 -2.44739,2.77812 c 0,0 -52.641464,10.50863 -37.113106,25.47572"
         style="fill:none;stroke:#000000;stroke-width:0.79500002;stroke-linecap:butt;stroke-linejoin:miter;stroke-miterlimit:4;stroke-dasharray:none;stroke-opacity:1" />
      <path
         transform="scale(0.26458333)"
         inkscape:connector-curvature="0"
         id="path1164"
         d="m 240.54678,845.46507 c -25.12721,-7.43382 -39.93663,-18.43866 -48.48581,-36.02965 -1.50207,-3.0907 -2.73104,-5.99319 -2.73104,-6.44998 0,-0.46755 3.78567,-1.81999 8.66206,-3.09455 106.04793,-27.71804 178.09248,-50.65061 196.88071,-62.6693 l 3.70846,-2.37227 0.70591,2.55659 c 0.77077,2.7915 0.63981,3.01948 -5.72106,9.95935 -2.40613,2.62514 -3.40565,3.15499 -7.62675,4.04292 -7.95455,1.67329 -30.07994,7.2981 -40.69229,10.34496 -57.9946,16.65055 -93.88399,35.6508 -103.29021,54.683 -2.34689,4.74862 -2.65458,5.9755 -2.62915,10.48364 0.035,6.20149 1.84143,11.32865 5.8473,16.59614 1.55274,2.04177 2.43031,3.69537 1.95014,3.67467 -0.48016,-0.0207 -3.44039,-0.79718 -6.57827,-1.72552 z"
         style="opacity:1;fill:#000000;fill-opacity:1;stroke:#000000;stroke-width:2.12466097;stroke-miterlimit:4;stroke-dasharray:none;stroke-opacity:1" />
      <path
         transform="scale(0.26458333)"
         inkscape:connector-curvature="0"
         id="path1166"
         d="m 268.87944,850.34131 c -1.16672,-0.16013 -5.22375,-0.64367 -9.01561,-1.07455 -3.79186,-0.43087 -6.89429,-1.07031 -6.89429,-1.42096 0,-0.35065 -1.48503,-2.46077 -3.30008,-4.68916 -5.16697,-6.34365 -6.80334,-10.54968 -6.48214,-16.66136 0.36779,-6.99812 2.39476,-10.8663 9.37658,-17.89384 11.53038,-11.60589 32.5051,-22.7419 63.77896,-33.86187 17.46169,-6.2088 49.0296,-15.07992 69.2092,-19.44896 l 7.07107,-1.53094 4.28599,-4.61905 4.28598,-4.61905 2.12896,7.37902 2.12896,7.37903 -1.54027,4.5531 c -3.23407,9.56006 -10.41922,21.97739 -18.39295,31.78661 -5.57447,6.85765 -18.16095,18.84358 -25.77714,24.54721 -13.52022,10.12507 -29.22572,18.81991 -47.29224,26.18185 l -9.62985,3.92407 -15.90991,0.17999 c -8.75044,0.099 -16.86449,0.049 -18.03122,-0.11114 z"
         style="opacity:1;fill:#ffffff;fill-opacity:1;stroke:none;stroke-width:2.12466097;stroke-miterlimit:4;stroke-dasharray:none;stroke-opacity:1" />
    </g>
    <path
       style="fill:#ffffff;fill-opacity:1;stroke:#000000;stroke-width:2.11666656;stroke-miterlimit:4;stroke-dasharray:none;stroke-opacity:1"
       id="path2092"
       sodipodi:type="arc"
       sodipodi:cx="-78.814011"
       sodipodi:cy="136.20999"
       sodipodi:rx="35.546848"
       sodipodi:ry="35.94775"
       sodipodi:start="0"
       sodipodi:end="6.2831578"
       sodipodi:open="true"
       d="m -43.267162,136.20999 a 35.546848,35.94775 0 0 1 -35.546604,35.94775 35.546848,35.94775 0 0 1 -35.547094,-35.94725 35.546848,35.94775 0 0 1 35.546116,-35.94825 35.546848,35.94775 0 0 1 35.547582,35.94676"
       transform="scale(-1,1)" />
    <path
       style="fill:none;fill-opacity:1;stroke:#000000;stroke-width:2.11666656;stroke-miterlimit:4;stroke-dasharray:none;stroke-opacity:1"
       d="m 108.48092,269.71111 c 39.28862,-47.30669 2.40542,-115.99496 2.40542,-115.99496 l -9.08716,70.29189 -17.907061,-52.6521"
       id="path2096"
       inkscape:connector-curvature="0" />
    <path
       style="fill:none;fill-opacity:1;stroke:#000000;stroke-width:2.11666656;stroke-miterlimit:4;stroke-dasharray:none;stroke-opacity:1"
       d="m 110.88635,153.71615 -40.090431,55.59206 -15.7689,-44.09947"
       id="path2100"
       inkscape:connector-curvature="0" />
    <path
       style="fill:none;fill-opacity:1;stroke:#000000;stroke-width:2.11666656;stroke-miterlimit:4;stroke-dasharray:none;stroke-opacity:1"
       d="m 124.24982,286.54912 -59.601101,-29.66693 43.832201,12.82892 53.4539,-3.74175 -96.751561,27.26149"
       id="path2102"
       inkscape:connector-curvature="0" />
    <g
       transform="matrix(-0.59109695,0.80660052,0.80660052,0.59109695,-171.91959,-98.755125)"
       id="g1070">
      <g
         transform="translate(-63.857209,259.79985)"
         id="g1053">
        <path
           style="opacity:1;fill:none;fill-opacity:1;stroke:#000000;stroke-width:1.00999999;stroke-miterlimit:4;stroke-dasharray:none;stroke-opacity:1"
           d="m 70.077514,77.935988 c 0,0 -18.82908,-30.678438 11.86259,-69.5721881"
           id="path200"
           inkscape:connector-curvature="0" />
        <path
           style="opacity:1;fill:none;fill-opacity:1;stroke:#000000;stroke-width:1.00999999;stroke-miterlimit:4;stroke-dasharray:none;stroke-opacity:1"
           d="m 81.940103,8.3637997 c 0,0 9.341146,13.1945403 9.738021,21.3966233 0.396875,8.202083 -9.657292,25.929166 -9.657292,25.929166"
           id="path1023"
           inkscape:connector-curvature="0" />
        <path
           style="opacity:1;fill:none;fill-opacity:1;stroke:#000000;stroke-width:1.00999999;stroke-miterlimit:4;stroke-dasharray:none;stroke-opacity:1"
           d="m 89.561457,22.219799 c 0,0 1.5875,-7.276042 7.276042,-13.890625"
           id="path1025"
           inkscape:connector-curvature="0" />
        <path
           style="opacity:1;fill:none;fill-opacity:1;stroke:#000000;stroke-width:1.00999999;stroke-miterlimit:4;stroke-dasharray:none;stroke-opacity:1"
           d="m 96.837499,8.329174 c 0,0 7.805211,5.423958 8.863541,13.361458 1.05833,7.937499 -0.13229,12.567708 -0.13229,12.567708 0,0 -0.26458,4.497916 -3.96875,10.715624 0,0 -24.493854,3.578333 -31.522486,32.962024"
           id="path1027"
           inkscape:connector-curvature="0" />
        <path
           style="opacity:1;fill:none;fill-opacity:1;stroke:#000000;stroke-width:1.00999999;stroke-miterlimit:4;stroke-dasharray:none;stroke-opacity:1"
           d="m 90.553645,24.468757 c 0,0 5.622395,-12.170833 15.147395,-3.175"
           id="path1029"
           inkscape:connector-curvature="0" />
        <path
           style="opacity:1;fill:none;fill-opacity:1;stroke:#000000;stroke-width:1.00999999;stroke-miterlimit:4;stroke-dasharray:none;stroke-opacity:1"
           d="m 91.876561,28.569798 c 0,0 -12.550965,-37.0580056 -14.421852,19.81695 0,0 2.245064,-29.934187 -8.231901,-19.083044"
           id="path1031"
           inkscape:connector-curvature="0" />
        <path
           style="opacity:1;fill:#000000;fill-opacity:1;stroke:#000000;stroke-width:1.90866137;stroke-miterlimit:4;stroke-dasharray:none;stroke-opacity:1"
           d="m 292.86382,123.15379 c -1.34382,-7.99749 -4.80656,-16.51261 -8.18376,-20.12444 -2.05649,-2.19936 -5.11137,-3.258244 -8.77865,-3.042869 -1.84422,0.108309 -4.1209,0.584119 -5.0593,1.057359 -0.93839,0.47324 -1.81167,0.75492 -1.94062,0.62597 -0.3796,-0.3796 8.87104,-18.381574 13.62772,-26.519879 5.46706,-9.353722 15.04544,-23.82969 21.7907,-32.932667 5.10172,-6.884952 5.14286,-6.924993 5.97802,-5.817795 2.89941,3.84383 16.29289,26.075063 17.31684,28.743435 0.20284,0.528611 -0.91768,-0.0035 -2.97884,-1.414649 -5.59975,-3.833744 -10.14178,-3.561706 -14.55437,0.871711 -6.71644,6.748149 -12.37922,27.33155 -15.35133,55.799964 -0.33017,3.1625 -0.74339,5.91972 -0.91827,6.12714 -0.17488,0.20743 -0.60154,-1.31055 -0.94814,-3.37328 z"
           id="path1041"
           inkscape:connector-curvature="0"
           transform="scale(0.26458333)" />
        <path
           style="opacity:1;fill:#000000;fill-opacity:1;stroke:#000000;stroke-width:1.90866137;stroke-miterlimit:4;stroke-dasharray:none;stroke-opacity:1"
           d="m 341.67256,84.920846 c -0.76266,-1.941554 -0.73671,-2.100356 1.36844,-8.374998 4.71622,-14.057261 12.1616,-27.971421 20.88322,-39.027227 l 2.47021,-3.131311 2.56278,2.131311 c 8.0688,6.710336 16.32552,16.467801 21.18178,25.031798 2.04015,3.5978 5.28669,11.219419 5.06259,11.885028 -0.0843,0.250447 -1.1658,-0.229929 -2.4033,-1.067502 -17.06372,-11.549183 -34.41302,-7.434214 -47.80981,11.339699 -1.25288,1.755757 -2.33659,3.192287 -2.40823,3.192287 -0.0716,0 -0.4801,-0.890585 -0.90768,-1.979085 z"
           id="path1043"
           inkscape:connector-curvature="0"
           transform="scale(0.26458333)" />
      </g>
      <path
         transform="matrix(0.26458333,0,0,0.26458333,0,268)"
         inkscape:connector-curvature="0"
         id="path1055"
         d="M 20.23366,252.21126 C 11.781895,233.01544 6.5274585,211.43072 4.6841563,188.3354 3.9360096,178.96164 4.3672919,155.71642 5.4501284,147.05111 8.0417019,126.31224 13.205825,105.73526 20.60724,86.656037 c 2.625055,-6.766815 2.906594,-7.253414 5.318166,-9.191676 3.226083,-2.592913 7.044012,-4.402619 9.296374,-4.4065 6.317365,-0.01089 10.93609,9.482885 13.253855,27.243249 1.179068,9.03486 1.74618,27.04974 1.228906,39.03747 -0.248303,5.75439 -0.458503,10.96878 -0.467111,11.58753 -0.01394,1.00232 0.229713,1.125 2.23435,1.125 h 2.25 l 0.0045,-1.875 c 0.01235,-4.88646 1.09219,-27.4605 1.751975,-36.625 3.87406,-53.811235 11.873535,-81.762987 22.58388,-78.912559 4.440365,1.181749 11.14611,10.102985 17.606335,23.423238 4.82591,9.950492 6.29787,14.239454 7.03244,20.491029 1.8103,15.406654 -7.08695,43.266422 -25.6687,80.375872 -7.4692,14.91667 -9.611695,18.50209 -13.64529,22.83515 -12.965214,13.92777 -24.480208,32.1113 -32.123005,50.726 -2.55907,6.23343 -8.042135,22.48274 -8.042135,23.83395 0,1.76899 -1.011432,0.37697 -2.98812,-4.11253 z"
         style="opacity:1;fill:#ffffff;fill-opacity:1;stroke:none;stroke-width:1.90866148;stroke-miterlimit:4;stroke-dasharray:none;stroke-opacity:1" />
      <path
         transform="matrix(0.26458333,0,0,0.26458333,0,268)"
         inkscape:connector-curvature="0"
         id="path1057"
         d="m 77.22178,168.33735 c 0,-0.10534 2.534675,-5.33159 5.632611,-11.61388 11.554531,-23.43141 19.126009,-43.14809 22.722999,-59.172363 0.99194,-4.418975 1.32825,-7.462745 1.45289,-13.149018 0.0892,-4.06946 0.30515,-7.630365 0.4799,-7.913123 0.17476,-0.282757 -0.25637,-2.128199 -0.95807,-4.100982 -0.70169,-1.972782 -1.75078,-5.228828 -2.33132,-7.235657 l -1.05552,-3.648781 1.57921,-2.566551 c 7.24983,-11.782473 16.26705,-18.75212 25.51126,-19.718332 3.23762,-0.338398 7.7454,0.389781 11.79694,1.905655 3.22129,1.205238 9.26333,5.097186 11.99391,7.725812 l 2.02664,1.950977 0.60262,6 c 2.98512,29.72132 -1.19453,54.079663 -13.0514,76.061543 -1.09187,2.02425 -2.19415,3.80959 -2.44951,3.96741 -0.25536,0.15782 -2.65554,0.8206 -5.33373,1.47284 -17.48492,4.25827 -36.605863,13.60802 -52.74443,25.79096 -3.23125,2.43926 -5.875,4.34883 -5.875,4.24349 z"
         style="opacity:1;fill:#ffffff;fill-opacity:1;stroke:none;stroke-width:0.95433068;stroke-miterlimit:4;stroke-dasharray:none;stroke-opacity:1" />
    </g>
  </g>
</svg>
