<?xml version="1.0" encoding="UTF-8" standalone="no"?>
<!-- Created with Inkscape (http://www.inkscape.org/) -->

<svg
   xmlns:dc="http://purl.org/dc/elements/1.1/"
   xmlns:cc="http://creativecommons.org/ns#"
   xmlns:rdf="http://www.w3.org/1999/02/22-rdf-syntax-ns#"
   xmlns:svg="http://www.w3.org/2000/svg"
   xmlns="http://www.w3.org/2000/svg"
   xmlns:sodipodi="http://sodipodi.sourceforge.net/DTD/sodipodi-0.dtd"
   xmlns:inkscape="http://www.inkscape.org/namespaces/inkscape"
   width="800"
   height="1280"
   viewBox="0 0 211.66666 338.66668"
   version="1.1"
   id="svg1029"
   inkscape:version="0.92.2 (30a58d1, 2017-08-07)"
   sodipodi:docname="6.rev.svg">
  <defs
     id="defs1023" />
  <sodipodi:namedview
     id="base"
     pagecolor="#ffffff"
     bordercolor="#666666"
     borderopacity="1.0"
     inkscape:pageopacity="0.0"
     inkscape:pageshadow="2"
     inkscape:zoom="0.7"
     inkscape:cx="174.33936"
     inkscape:cy="851.7333"
     inkscape:document-units="mm"
     inkscape:current-layer="layer7"
     showgrid="false"
     units="px"
     inkscape:window-width="1301"
     inkscape:window-height="744"
     inkscape:window-x="65"
     inkscape:window-y="24"
     inkscape:window-maximized="1" />
  <metadata
     id="metadata1026">
    <rdf:RDF>
      <cc:Work
         rdf:about="">
        <dc:format>image/svg+xml</dc:format>
        <dc:type
           rdf:resource="http://purl.org/dc/dcmitype/StillImage" />
        <dc:title />
      </cc:Work>
    </rdf:RDF>
  </metadata>
  <g
     inkscape:groupmode="layer"
     id="layer7"
     inkscape:label="Layer 2">
    <circle
       style="fill:#ffffff;fill-opacity:1;stroke:#000000;stroke-width:2.5410285;stroke-miterlimit:4;stroke-dasharray:none;stroke-opacity:1"
       id="path1764"
       cx="-119.85557"
       cy="77.485123"
       r="36.073532"
       transform="scale(-1,1)" />
    <path
       style="fill:none;fill-opacity:1;stroke:#000000;stroke-width:2.11666656;stroke-miterlimit:4;stroke-dasharray:none;stroke-opacity:1"
       d="m 120.23354,114.90476 v 82.77679 l 6.04762,49.89285 37.79762,43.84525"
       id="path1768"
       inkscape:connector-curvature="0" />
    <path
       style="fill:none;fill-opacity:1;stroke:#000000;stroke-width:2.11666656;stroke-miterlimit:4;stroke-dasharray:none;stroke-opacity:1"
       d="m 147.8258,184.0744 -1.88988,-36.66369 -25.70238,-32.50595 -20.788692,58.20834 -38.55357,3.0238"
       id="path1770"
       inkscape:connector-curvature="0" />
    <path
       style="fill:none;fill-opacity:1;stroke:#000000;stroke-width:2.11666656;stroke-miterlimit:4;stroke-dasharray:none;stroke-opacity:1"
       d="m 120.23354,197.68155 -26.836302,38.55357 -13.60715,54.0506"
       id="path1772"
       inkscape:connector-curvature="0" />
    <path
       style="fill:#000000;fill-opacity:1;stroke:#000000;stroke-width:1;stroke-miterlimit:4;stroke-dasharray:none;stroke-opacity:1"
       d="m 154.705,85.300061 -4.00905,1.33635 -27.52876,-8.55262 -20.04521,-9.888971 -8.552627,-6.94901 -0.26727,-2.6727 -7.48355,12.828942 -1.33635,-0.801812 1.60362,-7.21627 2.93996,-6.1472 6.1472,-6.41447 9.621717,-7.48355 13.36347,-3.20723 11.22532,1.60361 11.75986,6.1472 9.08716,8.55263 4.54359,9.88897 2.93996,11.225321 0.26727,9.08716 1.87089,12.56167 3.20723,8.819899 4.27631,4.81085 0.80181,2.67269 -7.75082,-1.06907 -5.87992,-4.54359 -5.34539,-7.75081 3.41521,6.77622 2.19745,3.38002 -11.22533,-8.8199 4.27632,9.35444 -10.42351,-5.34539 10.95805,-9.888969 4.27631,-6.94902 z"
       id="path2491"
       inkscape:connector-curvature="0"
       sodipodi:nodetypes="cccccccccccccccccccccccccccccccccc" />
  </g>
</svg>
