<?xml version="1.0" encoding="UTF-8" standalone="no"?>
<!-- Created with Inkscape (http://www.inkscape.org/) -->

<svg
   xmlns:dc="http://purl.org/dc/elements/1.1/"
   xmlns:cc="http://creativecommons.org/ns#"
   xmlns:rdf="http://www.w3.org/1999/02/22-rdf-syntax-ns#"
   xmlns:svg="http://www.w3.org/2000/svg"
   xmlns="http://www.w3.org/2000/svg"
   xmlns:sodipodi="http://sodipodi.sourceforge.net/DTD/sodipodi-0.dtd"
   xmlns:inkscape="http://www.inkscape.org/namespaces/inkscape"
   width="800"
   height="1280"
   viewBox="0 0 211.66667 338.66666"
   version="1.1"
   id="svg1045"
   inkscape:version="0.92.2 (30a58d1, 2017-08-07)"
   sodipodi:docname="cry.rev.svg">
  <defs
     id="defs1039">
    <inkscape:path-effect
       effect="bspline"
       id="path-effect1212"
       is_visible="true"
       weight="33.333333"
       steps="2"
       helper_size="0"
       apply_no_weight="true"
       apply_with_weight="true"
       only_selected="false" />
  </defs>
  <sodipodi:namedview
     id="base"
     pagecolor="#ffffff"
     bordercolor="#666666"
     borderopacity="1.0"
     inkscape:pageopacity="0.0"
     inkscape:pageshadow="2"
     inkscape:zoom="0.7"
     inkscape:cx="661.56402"
     inkscape:cy="437.29488"
     inkscape:document-units="mm"
     inkscape:current-layer="layer9"
     showgrid="false"
     units="px"
     inkscape:window-width="1301"
     inkscape:window-height="744"
     inkscape:window-x="65"
     inkscape:window-y="24"
     inkscape:window-maximized="1" />
  <metadata
     id="metadata1042">
    <rdf:RDF>
      <cc:Work
         rdf:about="">
        <dc:format>image/svg+xml</dc:format>
        <dc:type
           rdf:resource="http://purl.org/dc/dcmitype/StillImage" />
        <dc:title />
      </cc:Work>
    </rdf:RDF>
  </metadata>
  <g
     inkscape:groupmode="layer"
     id="layer9"
     inkscape:label="Layer 3">
    <g
       id="g42"
       transform="matrix(-1.3328654,0,0,1.3329444,185.00784,-35.867343)">
      <g
         id="g25">
        <path
           style="opacity:1;fill:none;fill-opacity:1;stroke:#000000;stroke-width:1;stroke-miterlimit:4;stroke-dasharray:none;stroke-opacity:1"
           d="m 57.807341,227.62575 c 0,0 -8.995834,15.61042 -32.54375,0.52917 -23.547916,-15.08125 -14.552083,-38.62917 -14.552083,-38.62917 0,0 -20.902083,17.72709 -2.910416,51.32917 0,0 6.35,14.55208 29.104166,12.43542 0,0 16.139583,1.32291 21.960417,-17.72709 z"
           id="path1255"
           inkscape:connector-curvature="0" />
        <path
           style="opacity:1;fill:#000000;fill-opacity:1;stroke:#000000;stroke-width:1;stroke-miterlimit:4;stroke-dasharray:none;stroke-opacity:1"
           d="m 35.846924,232.91742 c 0,0 -0.264583,6.08541 5.027084,5.55625 5.291666,-0.52917 0,-4.23334 0,-4.23334"
           id="path1257"
           inkscape:connector-curvature="0" />
        <path
           style="opacity:1;fill:none;fill-opacity:1;stroke:#000000;stroke-width:1;stroke-miterlimit:4;stroke-dasharray:none;stroke-opacity:1"
           d="m 2.366395,226.51911 c 6.173926,-5.79975 12.441397,-7.39001 12.441397,-7.39001"
           id="path1281"
           inkscape:connector-curvature="0" />
        <path
           style="opacity:1;fill:none;fill-opacity:1;stroke:#000000;stroke-width:1;stroke-miterlimit:4;stroke-dasharray:none;stroke-opacity:1"
           d="m 11.53374,212.95518 c 0,0 -5.706205,-1.40316 -10.94468702,5.14494"
           id="path1283"
           inkscape:connector-curvature="0" />
        <path
           style="opacity:1;fill:none;fill-opacity:1;stroke:#000000;stroke-width:1;stroke-miterlimit:4;stroke-dasharray:none;stroke-opacity:1"
           d="m 2.179306,203.78783 c 0,0 2.899874,2.5257 6.828738,-0.18708"
           id="path1285"
           inkscape:connector-curvature="0" />
        <path
           style="opacity:1;fill:#000000;fill-opacity:1;stroke:#000000;stroke-width:0.35355341;stroke-miterlimit:4;stroke-dasharray:none;stroke-opacity:1"
           d="m 2.4096961,225.62303 c -0.1697101,-0.27838 -0.8128622,-3.71409 -1.0425221,-5.56915 -0.2440549,-1.97132 -0.3037322,-1.77566 0.9118608,-2.98964 1.1998988,-1.19831 2.3072923,-2.01656 3.5555779,-2.62719 1.5439019,-0.75525 3.4384588,-1.16783 4.7945623,-1.04411 l 0.656116,0.0599 0.16201,0.39165 c 0.277532,0.67092 1.439725,2.74527 2.138582,3.81705 0.367424,0.56349 0.651986,1.03678 0.632357,1.05175 -0.01963,0.015 -0.372449,0.14609 -0.784043,0.29136 -3.409651,1.20347 -7.2874686,3.49305 -10.2458139,6.04945 -0.405456,0.35037 -0.7558651,0.60641 -0.778687,0.56897 z"
           id="path1343"
           inkscape:connector-curvature="0" />
        <path
           style="opacity:1;fill:#000000;fill-opacity:1;stroke:#000000;stroke-width:0.35355341;stroke-miterlimit:4;stroke-dasharray:none;stroke-opacity:1"
           d="m 4.191873,204.17115 c -0.1955853,-0.046 -0.5892112,-0.1942 -0.8747252,-0.32927 -0.629055,-0.29759 -0.6339014,-0.2099 0.1198216,-2.16794 0.9789395,-2.54311 2.0238347,-4.56255 3.5434293,-6.84829 0.8757629,-1.31731 2.404573,-3.26096 2.4523092,-3.11775 0.017251,0.0518 -0.093562,0.72181 -0.2462583,1.489 -0.529553,2.66066 -0.6033003,3.47246 -0.6270387,6.90237 l -0.021934,3.16887 -0.4031456,0.24041 c -0.2217314,0.13222 -0.7406243,0.35789 -1.1530965,0.50149 -0.6180269,0.21516 -0.8980514,0.25965 -1.5918523,0.25294 -0.463042,-0.004 -1.0019216,-0.0458 -1.1975095,-0.0918 z"
           id="path1345"
           inkscape:connector-curvature="0" />
        <path
           style="opacity:1;fill:#000000;fill-opacity:1;stroke:#000000;stroke-width:0.0625;stroke-miterlimit:4;stroke-dasharray:none;stroke-opacity:1"
           d="m 9.5153346,191.54527 -0.054922,-0.0285 0.077703,-0.0864 c 0.042738,-0.0475 0.080071,-0.0841 0.082963,-0.0812 0.00288,0.003 -0.00736,0.0546 -0.022781,0.11494 l -0.028038,0.10967 z"
           id="path1347"
           inkscape:connector-curvature="0" />
      </g>
      <path
         transform="matrix(0.26458333,0,0,0.26458333,0,190)"
         inkscape:connector-curvature="0"
         id="path27"
         d="M 113.20782,237.5313 C 80.781793,235.35696 53.982343,222.32901 37.515337,200.73512 30.616092,191.68785 16.71112,161.13332 11.718913,144.05055 l -1.315796,-4.50251 2.435208,-2.06632 C 25.67725,126.58765 38.957634,118.51973 51.421511,114.04217 l 5.035278,-1.80889 4.926747,5.81614 c 5.558569,6.56202 15.138015,15.38191 23.10926,21.27693 12.293285,9.09131 30.452204,19.20204 42.673584,23.76028 6.03045,2.2492 6.53446,2.58478 6.54074,4.355 0.0107,3.01175 2.76741,9.6228 5.13886,12.32373 4.26697,4.85981 11.05411,6.76108 18.56753,5.2013 7.1886,-1.49235 9.89664,-5.91452 6.76596,-11.0487 l -1.34897,-2.21225 5.77103,-0.47226 c 19.13872,-1.5662 32.93603,-7.41899 44.31563,-18.79858 l 4.08571,-4.08572 0.73026,5.0517 c 2.6527,18.35056 2.64988,18.22024 0.52412,24.25751 -4.20981,11.95601 -10.86212,23.5075 -18.94773,32.90201 -11.98198,13.92163 -31.16318,23.85211 -50.07193,25.92321 -7.34598,0.80461 -29.88217,1.45995 -36.02977,1.04772 z"
         style="opacity:1;fill:#ffffff;fill-opacity:1;stroke:none;stroke-width:2.69925475;stroke-miterlimit:4;stroke-dasharray:none;stroke-opacity:1" />
      <path
         transform="matrix(0.26458333,0,0,0.26458333,0,190)"
         inkscape:connector-curvature="0"
         id="path29"
         d="M 4.5418153,88.087923 C 4.9509834,76.681053 6.2743565,66.78207 8.4730617,58.681751 L 9.2594524,55.784584 12.9736,57.067676 c 6.022043,2.080381 11.257584,1.58122 19.093719,-1.820412 1.000626,-0.434367 1.237437,-0.182027 1.237437,1.318589 0,2.972185 2.70821,14.645173 4.906845,21.149598 l 2.023938,5.987602 -4.702828,0.487744 C 25.6624,85.214478 15.828502,89.733968 8.0977632,96.799428 l -3.9995514,3.655362 z"
         style="opacity:1;fill:#ffffff;fill-opacity:1;stroke:none;stroke-width:2.69925475;stroke-miterlimit:4;stroke-dasharray:none;stroke-opacity:1" />
    </g>
    <path
       style="fill:#ffffff;fill-opacity:1;stroke:#000000;stroke-width:2.11666656;stroke-miterlimit:4;stroke-dasharray:none;stroke-opacity:1"
       id="path2092"
       sodipodi:type="arc"
       sodipodi:cx="-78.814011"
       sodipodi:cy="136.20999"
       sodipodi:rx="35.546848"
       sodipodi:ry="35.94775"
       sodipodi:start="0"
       sodipodi:end="6.2831578"
       sodipodi:open="true"
       d="m -43.267162,136.20999 a 35.546848,35.94775 0 0 1 -35.546604,35.94775 35.546848,35.94775 0 0 1 -35.547094,-35.94725 35.546848,35.94775 0 0 1 35.546116,-35.94825 35.546848,35.94775 0 0 1 35.547582,35.94676"
       transform="scale(-1,1)" />
    <path
       style="fill:none;fill-opacity:1;stroke:#000000;stroke-width:2.11666656;stroke-miterlimit:4;stroke-dasharray:none;stroke-opacity:1"
       d="m 108.48092,269.71111 c 39.28862,-47.30669 2.40542,-115.99496 2.40542,-115.99496 l -9.08716,70.29189 -17.907061,-52.6521"
       id="path2096"
       inkscape:connector-curvature="0" />
    <path
       style="fill:none;fill-opacity:1;stroke:#000000;stroke-width:2.11666656;stroke-miterlimit:4;stroke-dasharray:none;stroke-opacity:1"
       d="m 110.88635,153.71615 -40.090431,55.59206 -15.7689,-44.09947"
       id="path2100"
       inkscape:connector-curvature="0" />
    <path
       style="fill:none;fill-opacity:1;stroke:#000000;stroke-width:2.11666656;stroke-miterlimit:4;stroke-dasharray:none;stroke-opacity:1"
       d="m 124.24982,286.54912 -59.601101,-29.66693 43.832201,12.82892 53.4539,-3.74175 -96.751561,27.26149"
       id="path2102"
       inkscape:connector-curvature="0" />
    <g
       id="g53"
       transform="matrix(-1.0472782,0.82413854,0.82430829,1.0474939,-93.271101,-149.34625)">
      <path
         inkscape:connector-curvature="0"
         id="path376"
         d="m 4.5282739,253.75219 c 0,0 -13.810318,-24.20128 9.7094001,-55.20454"
         style="opacity:1;fill:none;fill-opacity:1;stroke:#000000;stroke-width:1;stroke-miterlimit:4;stroke-dasharray:none;stroke-opacity:1" />
      <path
         inkscape:connector-curvature="0"
         id="path1198"
         d="m 14.237672,198.54765 c 0,0 11.388299,15.94885 9.784683,23.29877 0,0 -22.0165481,4.61134 -19.4940811,31.90577"
         style="opacity:1;fill:none;fill-opacity:1;stroke:#000000;stroke-width:1;stroke-miterlimit:4;stroke-dasharray:none;stroke-opacity:1" />
      <path
         inkscape:connector-curvature="0"
         id="path1204"
         d="m 16.004269,202.06847 c 0,0 -9.8889721,20.31248 -8.0180871,25.39061"
         style="opacity:1;fill:none;fill-opacity:1;stroke:#000000;stroke-width:1;stroke-miterlimit:4;stroke-dasharray:none;stroke-opacity:1" />
      <path
         inkscape:connector-curvature="0"
         id="path1206"
         d="m 3.5762369,219.57462 c 0,0 5.34539,-4.14267 6.414468,-3.20723"
         style="opacity:1;fill:none;fill-opacity:1;stroke:#000000;stroke-width:1;stroke-miterlimit:4;stroke-dasharray:none;stroke-opacity:1" />
      <path
         inkscape:connector-curvature="0"
         id="path1208"
         d="m 22.953277,215.16468 c 0,0 8.552625,-16.16981 14.29892,-16.83798 0,0 3.0736,8.28535 4.810852,24.72243"
         style="opacity:1;fill:none;fill-opacity:1;stroke:#000000;stroke-width:1;stroke-miterlimit:4;stroke-dasharray:none;stroke-opacity:1" />
      <path
         inkscape:original-d="m 42.063049,223.04913 c -2.939701,-0.71299 -5.879666,-1.4257 -8.819896,-2.13816 -3.11808,0.40067 -6.146935,0.62337 -9.220798,0.93545"
         inkscape:path-effect="#path-effect1212"
         inkscape:connector-curvature="0"
         id="path1210"
         d="m 42.063049,223.04913 c -2.939777,-0.71267 -5.87974,-1.42539 -8.913093,-1.62318 -3.033352,-0.19779 -6.053714,0.10862 -9.127601,0.42047"
         style="opacity:1;fill:none;fill-opacity:1;stroke:#000000;stroke-width:1;stroke-miterlimit:4;stroke-dasharray:none;stroke-opacity:1" />
      <path
         inkscape:connector-curvature="0"
         id="path1216"
         d="m 26.385743,209.53615 c 0,0 5.669643,8.22098 13.134671,-1.98437"
         style="opacity:1;fill:none;fill-opacity:1;stroke:#000000;stroke-width:1;stroke-miterlimit:4;stroke-dasharray:none;stroke-opacity:1" />
      <path
         inkscape:connector-curvature="0"
         id="path1222"
         d="m 31.032472,212.03791 c -1.292767,-0.25949 -3.032292,-1.32464 -3.793823,-2.32306 l -0.245909,-0.32241 0.87721,-1.29843 c 3.136167,-4.64213 5.955091,-7.69199 8.115302,-8.78012 0.342302,-0.17242 0.689822,-0.31363 0.772264,-0.31379 0.200792,-4e-4 0.689602,1.57533 1.510866,4.87041 0.899218,3.60785 0.881451,3.30699 0.242027,4.09839 -2.515502,3.11339 -5.135716,4.53914 -7.477937,4.06901 z"
         style="opacity:1;fill:#000000;fill-opacity:1;stroke:#000000;stroke-width:0.35714287;stroke-miterlimit:4;stroke-dasharray:none;stroke-opacity:1" />
      <path
         inkscape:connector-curvature="0"
         id="path1224"
         d="m 3.9599274,218.48053 c 0,-0.16593 1.0437918,-2.87809 1.6225811,-4.21607 1.180113,-2.72807 2.5830847,-5.46654 4.1420255,-8.08487 0.725083,-1.21781 3.070159,-4.75745 3.898223,-5.88394 l 0.610322,-0.83027 0.762735,1.161 c 0.483352,0.73574 0.717585,1.17136 0.639472,1.18926 -0.354531,0.0813 -4.876617,10.54476 -5.9542601,13.77734 -0.01905,0.0572 -0.2616808,0.13001 -0.5391493,0.16185 -0.6739388,0.0773 -2.2367134,0.85987 -3.8117859,1.90872 -0.6756321,0.44991 -1.2603136,0.83819 -1.299292,0.86285 -0.038979,0.0247 -0.070871,0.004 -0.070871,-0.0459 z"
         style="opacity:1;fill:#000000;fill-opacity:1;stroke:#000000;stroke-width:0.35714287;stroke-miterlimit:4;stroke-dasharray:none;stroke-opacity:1" />
      <path
         inkscape:connector-curvature="0"
         id="path1230"
         d="m 15.859285,201.99307 -0.09387,-0.0454 0.02077,-0.0272 c 0.01143,-0.015 0.02559,-0.0411 0.03148,-0.0581 l 0.01072,-0.0309 0.06476,0.1017 c 0.03562,0.0559 0.0637,0.10253 0.0624,0.10354 -0.0013,0.001 -0.04461,-0.0186 -0.09624,-0.0436 z"
         style="opacity:1;fill:#000000;fill-opacity:1;stroke:#000000;stroke-width:0.03156727;stroke-miterlimit:4;stroke-dasharray:none;stroke-opacity:1" />
      <path
         inkscape:connector-curvature="0"
         id="path1232"
         d="m 15.968949,202.05075 c -0.0019,-0.001 -0.003,-0.002 -0.0028,-0.003 0.0013,-0.005 0.0013,-0.005 0.0028,-0.002 0.0057,0.008 0.0057,0.009 1.4e-5,0.006 z"
         style="opacity:1;fill:#000000;fill-opacity:1;stroke:#000000;stroke-width:0.00390625;stroke-miterlimit:4;stroke-dasharray:none;stroke-opacity:1" />
    </g>
    <path
       style="opacity:1;fill:#ffffff;fill-opacity:1;stroke:none;stroke-width:5.45331812;stroke-miterlimit:4;stroke-dasharray:none;stroke-opacity:1"
       d="m 401.40411,420.95422 c -8.65399,-10.56105 -27.22476,-24.54293 -42.87827,-32.28292 -32.22745,-15.93509 -69.04239,-18.42333 -105.35729,-7.12087 -8.34064,2.5959 -8.97665,2.61243 -11.59752,0.30133 -4.71899,-4.16122 -13.83102,-25.51651 -18.01653,-42.22421 -4.05487,-16.18619 -9.2345,-47.91991 -8.01984,-49.13457 0.72426,-0.72426 19.97233,9.37865 43.70546,22.9401 29.27068,16.72567 54.45327,35.26525 59.49538,43.80086 1.65295,2.79823 3.69658,4.31548 5.81263,4.31548 1.79488,0 3.26342,-0.35335 3.26342,-0.78523 0,-4.95399 -14.71248,-20.16662 -29.64286,-30.65054 -4.91071,-3.44825 -8.92857,-6.74645 -8.92857,-7.32935 0,-0.5829 3.05357,-1.4215 6.78572,-1.86357 3.73214,-0.44206 10.56317,-1.3318 15.18006,-1.97719 l 8.39435,-1.17344 10.17708,7.80125 c 21.98221,16.8505 41.87738,37.8885 56.70396,59.96118 10.15833,15.12294 21.90486,37.86454 20.9843,40.62619 -0.28575,0.85728 -3.01343,-1.48475 -6.06148,-5.2045 z"
       id="path104"
       inkscape:connector-curvature="0"
       transform="scale(0.26458333)" />
    <path
       style="opacity:1;fill:#ffffff;fill-opacity:1;stroke:none;stroke-width:5.45331812;stroke-miterlimit:4;stroke-dasharray:none;stroke-opacity:1"
       d="m 166.57507,428.07536 c -4.88249,-8.19644 -12.05164,-20.93243 -15.93144,-28.30219 l -7.05418,-13.39956 14.61105,0.0514 c 12.57254,0.0443 15.58,-0.42431 21.55598,-3.35854 8.5189,-4.18282 14.57536,-12.17813 17.6778,-23.33697 1.28286,-4.6142 2.98723,-8.02533 3.84159,-7.68854 0.84462,0.33295 6.06395,2.37437 11.59849,4.53648 9.42148,3.68058 10.23355,4.35125 12.74173,10.52296 1.4734,3.62551 4.72783,9.83503 7.23207,13.79894 l 4.55317,7.2071 -8.31771,4.60769 c -14.05476,7.78579 -28.8027,20.79887 -40.70387,35.9157 -6.20537,7.88204 -11.65259,14.33484 -12.10495,14.33955 -0.45236,0.005 -4.81723,-6.69762 -9.69973,-14.89406 z"
       id="path106"
       inkscape:connector-curvature="0"
       transform="scale(0.26458333)" />
  </g>
</svg>
